# xmcd
#
# Track frame offsets:
#	150
#	38939
#	72543
#	89885
#	131989
#	162481
#	165507
#	186680
#	220782
#	248968
#
# Disc length: 3622 seconds
#
# Revision: 0
# Processed by: cddbd v1.5.2PL0 Copyright (c) Steve Scherf et al.
# Submitted via: dBpowerAMP V4.0
#
DISCID=a20e240a
DTITLE=Ray Agus Joe - Ray Agus Joe ... Beo
DYEAR=1900
DGENRE=Celtic
TTITLE0=An Caitheamh
TTITLE1=Laa Dee Dah Dee
TTITLE2=Imithe ar Strae sa Cheo
TTITLE3=Faoistin De Shórt
TTITLE4=Mary Mac
TTITLE5=Eadarlúid
TTITLE6=Amhrán Viagra
TTITLE7=Na Modhanna Nua
TTITLE8=An Gearradh
TTITLE9=Amarach Dar nDoigh
EXTD=
EXTT0=
EXTT1=
EXTT2=
EXTT3=
EXTT4=
EXTT5=
EXTT6=
EXTT7=
EXTT8=
EXTT9=
PLAYORDER=
